<?xml version="1.0" standalone="no"?>
<!DOCTYPE svg PUBLIC "-//W3C//DTD SVG 20010904//EN"
 "http://www.w3.org/TR/2001/REC-SVG-20010904/DTD/svg10.dtd">
<svg version="1.0" xmlns="http://www.w3.org/2000/svg"
 width="291.000000pt" height="144.000000pt" viewBox="0 0 291.000000 144.000000"
 preserveAspectRatio="xMidYMid meet">

<g transform="translate(0.000000,144.000000) scale(0.100000,-0.100000)"
fill="#000000" stroke="none">
<path d="M2120 1309 c-180 -35 -337 -200 -371 -390 -54 -304 202 -591 506
-566 419 36 605 528 311 823 -119 118 -278 166 -446 133z m131 -69 c225 -70
398 -289 399 -502 1 -346 -406 -443 -685 -163 -238 238 -216 578 44 671 55 20
169 17 242 -6z"/>
<path d="M210 1271 c-27 -54 -25 -57 10 -27 46 38 90 47 260 53 l155 5 -36
-26 c-67 -46 -69 -60 -69 -479 0 -321 -2 -376 -16 -395 -8 -12 -22 -22 -30
-22 -8 0 -14 -4 -14 -10 0 -6 43 -9 113 -8 l112 2 -85 5 c-74 5 -82 8 -63 18
12 7 32 28 45 45 23 33 23 35 28 430 6 466 -3 433 113 432 94 -1 171 -20 210
-53 l31 -26 -25 45 -24 45 -347 3 -347 2 -21 -39z"/>
<path d="M1123 1303 l89 -4 -33 -22 c-55 -38 -69 -78 -69 -195 0 -64 5 -115
14 -135 15 -37 69 -87 94 -87 10 -1 1 -10 -20 -20 -20 -11 -47 -34 -60 -52
-21 -31 -23 -45 -28 -203 -3 -93 -9 -176 -14 -183 -4 -7 -18 -17 -30 -22 -19
-8 -19 -9 7 -9 16 -1 43 10 62 24 57 44 65 74 65 249 0 153 1 157 25 181 23
24 31 25 133 25 l110 0 6 26 c4 15 5 28 3 31 -3 2 -7 -8 -11 -22 -6 -25 -7
-25 -114 -25 -154 1 -146 -10 -150 210 l-3 180 26 26 c27 27 28 27 129 20 108
-7 161 -18 190 -39 17 -12 17 -16 1 -76 -9 -35 -14 -65 -12 -67 2 -2 15 39 29
91 13 52 22 97 20 100 -3 3 -127 4 -276 3 -149 -1 -231 -4 -183 -5z"/>
<path d="M1521 1084 c0 -11 3 -14 6 -6 3 7 2 16 -1 19 -3 4 -6 -2 -5 -13z"/>
<path d="M1501 1014 c-7 -25 -10 -48 -8 -51 3 -2 10 17 16 43 7 25 10 48 8 51
-3 2 -10 -17 -16 -43z"/>
<path d="M1481 934 c0 -11 3 -14 6 -6 3 7 2 16 -1 19 -3 4 -6 -2 -5 -13z"/>
<path d="M1436 774 c-9 -37 -15 -68 -13 -70 2 -2 12 25 22 61 9 36 16 68 13
70 -2 2 -12 -25 -22 -61z"/>
<path d="M1411 674 c0 -11 3 -14 6 -6 3 7 2 16 -1 19 -3 4 -6 -2 -5 -13z"/>
<path d="M1401 634 c0 -11 3 -14 6 -6 3 7 2 16 -1 19 -3 4 -6 -2 -5 -13z"/>
<path d="M1391 594 c0 -11 3 -14 6 -6 3 7 2 16 -1 19 -3 4 -6 -2 -5 -13z"/>
<path d="M1625 434 c-32 -23 -119 -45 -213 -53 -84 -8 -83 -8 59 -10 l145 -1
18 36 c20 43 18 48 -9 28z"/>
<path d="M198 165 c15 -36 29 -65 32 -65 3 0 11 15 18 33 l13 32 16 -35 c10
-24 17 -30 21 -20 3 8 15 39 28 68 19 43 20 52 8 52 -8 0 -13 -4 -10 -9 3 -5
-2 -28 -12 -52 l-19 -43 -11 33 c-7 19 -12 42 -12 52 0 11 -7 19 -15 19 -11 0
-12 -5 -5 -26 7 -18 6 -33 -4 -52 l-15 -27 -15 37 c-9 21 -16 44 -16 53 0 8
-6 15 -14 15 -12 0 -9 -14 12 -65z"/>
<path d="M535 165 l0 -65 45 2 c44 1 44 1 8 5 -35 4 -38 7 -38 35 0 27 3 30
25 26 14 -3 25 -1 25 3 0 5 -11 9 -25 9 -18 0 -25 5 -25 19 0 15 8 21 33 24
29 3 29 4 -8 5 l-40 2 0 -65z"/>
<path d="M805 165 l0 -66 40 3 c42 3 55 21 39 56 -4 9 -8 28 -8 42 -1 17 -7
25 -21 27 -11 2 -14 0 -7 -3 21 -10 14 -44 -9 -44 -17 0 -20 5 -17 25 3 15 1
25 -6 25 -7 0 -11 -24 -11 -65z m65 -10 c18 -21 5 -45 -25 -45 -21 0 -25 5
-25 30 0 23 5 30 19 30 10 0 24 -7 31 -15z"/>
<path d="M1286 213 c-5 -12 4 -28 29 -51 19 -18 33 -38 30 -43 -10 -15 -43
-10 -54 9 -6 9 -10 13 -11 7 0 -23 19 -36 46 -33 42 5 44 40 4 70 -20 15 -30
29 -27 40 6 23 -9 23 -17 1z"/>
<path d="M1335 220 c3 -5 8 -10 11 -10 2 0 4 5 4 10 0 6 -5 10 -11 10 -5 0 -7
-4 -4 -10z"/>
<path d="M1530 221 c0 -4 12 -6 26 -3 26 5 26 5 22 -57 -2 -36 1 -61 7 -61 6
0 9 24 7 59 -4 59 -3 60 25 64 15 2 2 5 -29 6 -32 0 -58 -3 -58 -8z"/>
<path d="M1820 181 c0 -32 6 -55 16 -65 22 -23 71 -20 84 3 12 23 14 111 2
111 -4 0 -6 -16 -4 -35 2 -19 1 -46 -2 -61 -6 -21 -11 -25 -39 -22 -32 3 -32
3 -32 61 0 39 -4 57 -12 57 -9 0 -13 -17 -13 -49z"/>
<path d="M2125 165 l0 -65 41 0 c49 0 74 23 74 67 0 33 -27 63 -56 62 -17 0
-16 -1 4 -9 12 -5 27 -21 33 -34 17 -36 -10 -76 -51 -76 -30 0 -30 1 -30 54 0
34 5 56 13 59 6 3 3 6 -8 6 -18 1 -20 -5 -20 -64z"/>
<path d="M2435 165 c0 -37 4 -65 10 -65 6 0 10 28 10 65 0 37 -4 65 -10 65 -6
0 -10 -28 -10 -65z"/>
<path d="M2674 223 c-26 -18 -36 -54 -24 -84 22 -53 105 -50 124 4 15 43 -10
81 -54 85 -19 1 -40 -1 -46 -5z m76 -22 c24 -46 6 -91 -36 -91 -41 0 -71 69
-42 98 19 19 66 15 78 -7z"/>
</g>
</svg>
