<?xml version="1.0" standalone="no"?>
<!DOCTYPE svg PUBLIC "-//W3C//DTD SVG 20010904//EN"
 "http://www.w3.org/TR/2001/REC-SVG-20010904/DTD/svg10.dtd">
<svg version="1.0" xmlns="http://www.w3.org/2000/svg"
 width="247.000000pt" height="147.000000pt" viewBox="0 0 247.000000 147.000000"
 preserveAspectRatio="xMidYMid meet">

<g transform="translate(0.000000,147.000000) scale(0.100000,-0.100000)"
fill="#975de3" stroke="none">
<path d="M1035 1413 c-212 -26 -384 -76 -550 -160 -97 -49 -149 -86 -228 -162
-229 -219 -235 -490 -17 -712 448 -456 1509 -466 1973 -20 209 200 235 451 69
661 -156 197 -473 348 -817 389 -83 10 -361 13 -430 4z m393 -13 c614 -65
1035 -413 938 -776 -45 -168 -183 -314 -401 -422 -332 -166 -810 -204 -1200
-97 -447 123 -710 393 -665 685 54 346 535 613 1115 619 66 0 162 -4 213 -9z"/>
</g>
</svg>
