<?xml version="1.0" standalone="no"?>
<!DOCTYPE svg PUBLIC "-//W3C//DTD SVG 20010904//EN"
 "http://www.w3.org/TR/2001/REC-SVG-20010904/DTD/svg10.dtd">
<svg version="1.0" xmlns="http://www.w3.org/2000/svg"
 width="337.000000pt" height="299.000000pt" viewBox="0 0 337.000000 299.000000"
 preserveAspectRatio="xMidYMid meet">

<g transform="translate(0.000000,299.000000) scale(0.100000,-0.100000)"
fill="#975de3" stroke="none">
<path d="M3173 2851 c75 -79 112 -152 134 -260 59 -286 -175 -561 -477 -561
-43 0 -114 7 -157 15 -169 32 -271 12 -366 -75 -55 -50 -94 -116 -104 -175 -3
-19 -11 -35 -18 -35 -7 0 -35 -12 -64 -27 -180 -97 -273 -321 -230 -559 5 -32
35 -135 66 -229 90 -275 86 -413 -17 -515 -98 -98 -229 -105 -460 -25 -205 72
-273 87 -358 81 -139 -9 -235 -74 -408 -275 -73 -86 -109 -119 -142 -133 -44
-20 -46 -20 -90 -2 -89 38 -132 133 -132 296 0 48 -5 111 -11 140 -16 75 -65
163 -116 208 -46 40 -121 80 -150 80 -10 0 14 -16 54 -35 79 -39 137 -96 174
-173 18 -38 23 -73 30 -192 4 -80 15 -167 23 -193 30 -99 105 -163 182 -154
58 6 81 22 155 109 188 221 269 284 393 307 83 15 168 0 351 -64 85 -30 187
-58 228 -64 173 -24 304 43 352 179 40 114 30 206 -50 446 -78 233 -88 339
-49 484 31 109 116 219 206 266 64 33 78 31 78 -8 0 -47 37 -116 73 -134 45
-24 115 -14 144 21 29 33 29 70 1 111 -30 44 -77 64 -148 64 -69 0 -70 2 -36
76 48 103 135 174 239 195 49 10 80 8 208 -11 133 -21 159 -22 222 -12 150 25
308 136 371 260 101 200 59 441 -105 600 -70 67 -68 49 4 -27z m-836 -1102
c89 -33 113 -128 42 -164 -36 -19 -53 -19 -96 2 -24 11 -42 30 -54 57 -19 41
-25 97 -12 109 10 11 89 8 120 -4z"/>
</g>
</svg>
