<?xml version="1.0" standalone="no"?>
<!DOCTYPE svg PUBLIC "-//W3C//DTD SVG 20010904//EN"
 "http://www.w3.org/TR/2001/REC-SVG-20010904/DTD/svg10.dtd">
<svg version="1.0" xmlns="http://www.w3.org/2000/svg"
 width="447.000000pt" height="262.000000pt" viewBox="0 0 447.000000 262.000000"
 preserveAspectRatio="xMidYMid meet">

<g transform="translate(0.000000,262.000000) scale(0.100000,-0.100000)"
fill="#975de3" stroke="none">
<path d="M2185 2511 c-16 -10 -129 -74 -250 -141 -121 -68 -254 -143 -295
-166 -41 -23 -176 -99 -300 -169 -124 -70 -272 -154 -330 -186 -591 -329 -915
-516 -915 -528 0 -12 201 -128 875 -505 281 -157 898 -504 1050 -591 80 -45
160 -90 178 -99 l33 -17 142 79 c78 44 243 137 367 207 124 70 250 141 280
157 97 54 691 388 805 453 61 34 205 115 320 180 116 65 213 123 217 129 4 6
2 16 -5 22 -10 10 -207 121 -862 487 -49 27 -115 64 -145 82 -30 18 -147 84
-260 147 -113 63 -350 197 -527 296 -177 100 -328 182 -335 182 -7 0 -26 -9
-43 -19z m1170 -656 c130 -72 678 -381 853 -480 92 -52 93 -54 70 -68 -13 -8
-102 -58 -198 -112 -96 -54 -224 -126 -285 -160 -60 -34 -348 -196 -640 -360
-291 -163 -616 -346 -722 -406 -105 -60 -197 -109 -203 -109 -9 0 -150 77
-445 245 -104 59 -1054 594 -1400 788 -88 49 -175 98 -193 110 l-34 20 74 42
c40 23 192 108 338 190 146 81 310 174 365 205 55 32 285 161 510 288 226 126
450 253 499 281 49 28 90 51 91 51 1 0 46 24 99 54 l97 53 497 -279 c273 -154
556 -313 627 -353z"/>
</g>
</svg>
