<?xml version="1.0" standalone="no"?>
<!DOCTYPE svg PUBLIC "-//W3C//DTD SVG 20010904//EN"
 "http://www.w3.org/TR/2001/REC-SVG-20010904/DTD/svg10.dtd">
<svg version="1.0" xmlns="http://www.w3.org/2000/svg"
 width="339.000000pt" height="327.000000pt" viewBox="0 0 339.000000 327.000000"
 preserveAspectRatio="xMidYMid meet">

<g transform="translate(0.000000,327.000000) scale(0.100000,-0.100000)"
fill="#975de3" stroke="none">
<path d="M1443 2647 l-251 -502 -478 -70 c-264 -38 -517 -74 -563 -79 l-85
-11 407 -394 c224 -217 407 -399 407 -405 0 -6 -13 -87 -30 -181 -100 -571
-158 -911 -153 -915 2 -2 18 3 34 12 16 10 114 61 217 114 103 53 266 138 362
189 238 126 377 195 392 195 6 0 122 -58 257 -129 135 -71 307 -160 381 -199
74 -38 184 -96 243 -127 59 -32 111 -54 114 -51 4 3 -3 59 -15 124 -11 64 -37
209 -56 322 -20 113 -53 306 -74 429 l-39 224 171 166 c375 364 474 460 554
536 45 43 82 81 82 84 0 5 -300 50 -700 106 -47 7 -160 23 -251 36 l-166 23
-249 499 c-137 274 -251 500 -254 502 -3 2 -119 -222 -257 -498z m491 -91
l229 -463 221 -31 c122 -18 313 -45 426 -62 113 -17 246 -36 295 -42 50 -6 92
-12 93 -14 2 -1 -76 -80 -175 -176 -330 -321 -458 -444 -515 -499 l-58 -54 25
-140 c14 -77 34 -192 45 -255 11 -63 40 -230 64 -370 25 -140 43 -256 41 -258
-2 -2 -54 23 -117 56 -62 33 -207 109 -323 169 -115 61 -272 143 -348 182
l-138 72 -292 -152 c-426 -223 -632 -329 -635 -329 -5 0 -3 14 89 543 43 252
79 464 79 472 0 7 -166 174 -370 371 -204 196 -370 360 -370 364 0 4 39 12 87
18 49 6 182 25 298 42 116 17 255 37 310 45 55 7 153 21 219 31 l118 18 231
463 c127 255 233 463 236 462 3 0 109 -208 235 -463z"/>
</g>
</svg>
