<?xml version="1.0" standalone="no"?>
<!DOCTYPE svg PUBLIC "-//W3C//DTD SVG 20010904//EN"
 "http://www.w3.org/TR/2001/REC-SVG-20010904/DTD/svg10.dtd">
<svg version="1.0" xmlns="http://www.w3.org/2000/svg"
 width="500.000000pt" height="452.000000pt" viewBox="0 0 500.000000 452.000000"
 preserveAspectRatio="xMidYMid meet">

<g transform="translate(0.000000,452.000000) scale(0.100000,-0.100000)"
fill="#975de3" stroke="none">
<path d="M4857 4288 c-7 -161 -28 -251 -88 -375 -100 -209 -273 -323 -490
-323 -160 0 -350 71 -604 225 -157 96 -306 171 -399 202 -73 25 -95 27 -221
27 -123 0 -147 -3 -200 -24 -165 -64 -261 -176 -273 -316 -11 -139 47 -214
357 -462 173 -139 360 -310 417 -382 80 -101 144 -228 169 -332 22 -94 19
-247 -6 -338 -73 -264 -287 -441 -554 -457 -282 -17 -497 140 -754 550 -90
144 -142 204 -213 242 -45 26 -64 30 -128 30 -87 0 -120 -15 -162 -74 -60 -84
-61 -190 -4 -338 67 -172 38 -273 -78 -273 -56 0 -130 28 -306 115 -202 99
-300 126 -451 127 -196 0 -331 -81 -374 -226 -30 -99 -15 -197 48 -321 45 -91
92 -150 246 -310 199 -207 255 -310 255 -470 -1 -342 -337 -652 -713 -659 -42
0 -104 3 -138 7 -42 5 -63 5 -63 -2 0 -19 53 -26 190 -26 126 1 141 3 230 33
135 47 221 101 320 201 141 143 207 301 197 476 -9 170 -60 253 -312 515 -103
107 -138 151 -182 230 -94 166 -82 352 28 444 84 71 203 97 352 78 119 -15
197 -42 387 -136 221 -109 309 -126 374 -75 66 52 72 124 21 266 -54 147 -58
175 -40 245 28 109 75 148 177 148 106 0 204 -75 292 -221 186 -309 351 -479
539 -557 228 -95 474 -48 658 125 82 77 140 170 177 280 22 67 26 96 26 208 1
148 -18 229 -81 345 -93 172 -211 296 -508 535 -323 259 -365 310 -365 436 0
263 332 418 663 308 91 -30 221 -95 395 -199 195 -115 252 -144 360 -180 270
-90 474 -52 641 118 137 138 196 292 217 553 6 84 1 129 -15 129 -5 0 -11 -55
-14 -122z"/>
</g>
</svg>
