<?xml version="1.0" standalone="no"?>
<!DOCTYPE svg PUBLIC "-//W3C//DTD SVG 20010904//EN"
 "http://www.w3.org/TR/2001/REC-SVG-20010904/DTD/svg10.dtd">
<svg version="1.0" xmlns="http://www.w3.org/2000/svg"
 width="547.000000pt" height="125.000000pt" viewBox="0 0 547.000000 125.000000"
 preserveAspectRatio="xMidYMid meet">

<g transform="translate(0.000000,125.000000) scale(0.100000,-0.100000)"
fill="#975de3" stroke="none">
<path d="M4500 1060 c-30 -30 -25 -89 16 -194 40 -101 80 -176 131 -249 18
-26 33 -51 33 -56 0 -14 -144 -71 -244 -96 -127 -32 -308 -49 -447 -42 -180
10 -327 32 -709 108 -363 72 -475 93 -545 104 -22 3 -78 12 -125 20 -129 21
-388 53 -545 66 -183 15 -557 15 -715 0 -473 -46 -870 -172 -1166 -371 -40
-27 -76 -55 -80 -61 -8 -14 -1 -10 76 41 131 88 309 169 490 223 330 100 600
137 1000 137 460 0 830 -48 1630 -209 416 -84 505 -95 750 -96 166 0 235 4
302 18 99 20 220 58 292 93 28 13 54 24 58 24 5 0 50 -42 101 -93 51 -52 126
-119 168 -150 79 -58 245 -147 274 -147 30 0 11 18 -57 53 -123 64 -242 151
-348 255 l-104 102 64 44 c133 89 240 206 300 330 42 87 47 119 21 145 -42 42
-112 21 -209 -63 -65 -55 -71 -62 -107 -109 l-29 -39 -18 50 c-48 129 -197
223 -258 162z m110 -27 c74 -49 140 -143 140 -200 0 -41 18 -33 68 31 71 90
200 186 250 186 11 0 25 -7 32 -15 11 -13 6 -29 -29 -98 -24 -46 -69 -115
-101 -154 -56 -67 -221 -203 -248 -203 -14 0 -104 135 -146 217 -14 28 -37 86
-51 127 -31 93 -24 126 28 126 18 0 44 -7 57 -17z"/>
</g>
</svg>
