<?xml version="1.0" standalone="no"?>
<!DOCTYPE svg PUBLIC "-//W3C//DTD SVG 20010904//EN"
 "http://www.w3.org/TR/2001/REC-SVG-20010904/DTD/svg10.dtd">
<svg version="1.0" xmlns="http://www.w3.org/2000/svg"
 width="335.000000pt" height="48.000000pt" viewBox="0 0 335.000000 48.000000"
 preserveAspectRatio="xMidYMid meet">

<g transform="translate(0.000000,48.000000) scale(0.100000,-0.100000)"
fill="#975de3" stroke="none">
<path d="M1665 379 c-912 -29 -1524 -72 -1560 -111 -7 -7 7 -9 50 -4 186 21
232 26 360 36 202 15 770 38 1205 50 457 12 1350 13 1368 1 17 -10 -33 -13
-788 -51 -907 -46 -1188 -65 -1277 -87 -35 -8 -27 -31 15 -42 29 -8 333 -41
374 -41 5 0 7 -4 3 -9 -3 -5 -31 -13 -63 -16 -31 -4 -68 -10 -82 -15 -25 -8
-25 -8 5 -9 33 -1 160 16 188 25 10 3 16 11 14 17 -6 18 -83 34 -229 47 -73 7
-137 16 -143 21 -5 5 3 9 21 9 16 0 133 7 259 15 214 14 698 40 1185 65 345
17 660 40 685 50 33 13 32 36 -2 45 -40 11 -1281 14 -1588 4z"/>
</g>
</svg>
